<svg width="60" height="60" viewBox="0 0 60 60" fill="none" xmlns="http://www.w3.org/2000/svg">
<g id="logos:spring-icon" clip-path="url(#clip0)">
<path id="Vector" d="M9.12726 8.4091C20.9819 -3.07504 39.9368 -2.76637 51.4209 9.14996C52.7175 7.42121 53.8289 5.5073 54.6316 3.53152C58.398 15.0157 60.6825 24.6475 59.8179 32.1182C59.3857 38.4159 56.9161 44.4668 52.841 49.2827C42.2215 61.8782 23.328 63.4835 10.7325 52.8639L10.4916 52.6495L10.4787 52.6411C10.4393 52.6136 10.4004 52.5848 10.3619 52.555C10.2471 52.4657 10.1428 52.3685 10.0488 52.2644L10.0151 52.226L9.62132 51.876C9.23695 51.5468 8.85281 51.2175 8.51203 50.8448L8.3864 50.7028C-3.09797 38.8481 -2.72743 19.8932 9.12703 8.4091H9.12726ZM13.5724 48.6037C12.461 47.7393 10.8558 47.8626 9.99117 48.974C9.23132 49.9514 9.23507 51.3105 10.0027 52.2119L10.0148 52.226L10.4913 52.6495L10.5382 52.6814C11.6173 53.3911 13.0694 53.2443 13.8975 52.2412L13.943 52.1847C14.8073 51.0733 14.6222 49.4681 13.5727 48.6035L13.5724 48.6037ZM54.3232 6.61847C51.2358 13.1015 43.5794 18.041 36.9731 19.5846C30.7371 21.0663 25.3036 19.8316 19.5616 22.0542C6.47226 27.0555 6.71929 42.6145 13.8813 46.1339L14.3135 46.3809C14.3135 46.3809 19.4871 45.3522 24.603 43.9938L25.0413 43.8766C27.0846 43.3258 29.0948 42.7258 30.7371 42.1207C39.2576 38.9718 48.6427 31.1922 51.7296 22.1777C50.1244 31.5625 42.0361 40.6387 33.9476 44.7757C29.6257 46.9982 26.2917 47.4921 19.1913 49.9619C18.3269 50.2706 17.6477 50.5795 17.6477 50.5795L17.9074 50.5443L18.0799 50.5221L18.2517 50.5005C19.8197 50.306 21.2287 50.2089 21.2287 50.2089C31.2928 49.7149 47.0991 53.0491 54.4465 43.2321C61.9791 33.2296 57.7805 17.0531 54.323 6.61847H54.3232Z" fill="#6DB33F"/>
<path id="Vector_2" d="M13.573 48.6038C14.6227 49.4681 14.8079 51.0734 13.9433 52.1848C13.0791 53.2962 11.4737 53.4197 10.3622 52.5551C9.25108 51.6907 9.12756 50.0855 9.99194 48.9741C10.8563 47.8627 12.4615 47.7394 13.5732 48.6038H13.573ZM54.3235 6.61853C57.781 17.0531 61.9796 33.2297 54.447 43.2321C47.0994 53.0492 31.2933 49.7149 21.2293 50.209C21.2293 50.209 19.8202 50.3063 18.2522 50.5006L18.0805 50.5221C17.937 50.5404 17.7926 50.5596 17.6483 50.5795C17.6483 50.5795 18.3275 50.2706 19.1919 49.962C26.2923 47.4924 29.6262 46.9983 33.9481 44.7757C42.0366 40.639 50.1249 31.5626 51.7301 22.1777C48.6432 31.1923 39.2581 38.9719 30.7376 42.1207C24.8722 44.2817 14.314 46.381 14.314 46.381L13.8819 46.1339C6.71983 42.6145 6.4728 27.0556 19.5622 22.0542C25.3044 19.8317 30.7376 21.0663 36.9739 19.5846C43.5802 18.041 51.2363 13.1018 54.3235 6.61853V6.61853Z" fill="white"/>
</g>
<defs>
<clipPath id="clip0">
<rect width="60" height="60" fill="white"/>
</clipPath>
</defs>
</svg>
